<svg id="组_10" data-name="组 10" xmlns="http://www.w3.org/2000/svg" width="245" height="245" viewBox="0 0 245 245">
  <defs>
    <style>
      .cls-1 {
        fill: none;
      }

      .cls-1, .cls-2, .cls-3 {
        stroke: #515151;
        stroke-linecap: round;
        stroke-linejoin: round;
        stroke-width: 10px;
      }

      .cls-1, .cls-2 {
        fill-rule: evenodd;
      }

      .cls-2, .cls-5 {
        fill: #fff;
      }

      .cls-3 {
        fill: #f5f5f5;
      }

      .cls-4 {
        fill: #515151;
      }
    </style>
  </defs>
  <path id="矩形_2_拷贝" data-name="矩形 2 拷贝" class="cls-1" d="M58,79H173a10,10,0,0,1,10,10v88a10,10,0,0,1-10,10H58a10,10,0,0,1-10-10V89A10,10,0,0,1,58,79Z"/>
  <path id="三角形_1_拷贝_2" data-name="三角形 1 拷贝 2" class="cls-2" d="M81.386,148.381a5,5,0,0,1,7.918,0l22.808,29.565A5,5,0,0,1,108.153,186H62.537a5,5,0,0,1-3.959-8.054Z"/>
  <path id="三角形_1_拷贝_2-2" data-name="三角形 1 拷贝 2" class="cls-2" d="M130.136,133.378a5,5,0,0,1,7.917,0l34.371,44.552a5,5,0,0,1-3.959,8.054H99.724a5,5,0,0,1-3.959-8.054Z"/>
  <circle id="椭圆_1_拷贝" data-name="椭圆 1 拷贝" class="cls-3" cx="94.5" cy="114.5" r="12.5"/>
  <circle id="椭圆_2_拷贝" data-name="椭圆 2 拷贝" class="cls-4" cx="182" cy="83" r="31"/>
  <rect id="矩形_3_拷贝_2" data-name="矩形 3 拷贝 2" class="cls-5" x="161" y="78" width="42" height="9" rx="4.5" ry="4.5"/>
  <rect id="矩形_3_拷贝_2-2" data-name="矩形 3 拷贝 2" class="cls-5" x="177.5" y="61.5" width="9" height="42" rx="4.5" ry="4.5"/>
</svg>
