<svg id="组_7" data-name="组 7" xmlns="http://www.w3.org/2000/svg" width="245" height="245" viewBox="0 0 245 245">
  <defs>
    <style>
      .cls-1, .cls-3 {
        fill: #515151;
      }

      .cls-1, .cls-2, .cls-3 {
        fill-rule: evenodd;
      }

      .cls-2 {
        fill: none;
      }

      .cls-2, .cls-3 {
        stroke: #515151;
        stroke-linecap: round;
        stroke-linejoin: round;
        stroke-width: 10px;
      }
    </style>
  </defs>
  <path id="形状_1" data-name="形状 1" class="cls-1" d="M180,149s13.333,21.667,14,30-3.667,18-14,18-15-7.667-15-16S180,149,180,149Z"/>
  <path id="矩形_2_拷贝_6" data-name="矩形 2 拷贝 6" class="cls-2" d="M117.824,73.911L166.645,122.9a10.029,10.029,0,0,1,0,14.148l-48.821,48.993a9.944,9.944,0,0,1-14.1,0L54.905,137.052a10.029,10.029,0,0,1,0-14.148l48.821-48.993A9.944,9.944,0,0,1,117.824,73.911Z"/>
  <path id="矩形_2_拷贝_7" data-name="矩形 2 拷贝 7" class="cls-3" d="M168.971,133.717l-51.479,51.662a8.07,8.07,0,0,1-11.44,0L54.573,133.717"/>
  <path id="矩形_3_拷贝_6" data-name="矩形 3 拷贝 6" class="cls-1" d="M97.915,46.51l26.971,27.066a5.211,5.211,0,1,1-7.356,7.381L90.56,53.891A5.21,5.21,0,0,1,97.915,46.51Z"/>
</svg>
