<svg id="组_2" data-name="组 2" xmlns="http://www.w3.org/2000/svg" width="245" height="245" viewBox="0 0 245 245">
  <defs>
    <style>
      .cls-1 {
        fill: none;
        stroke: #515151;
        stroke-linecap: round;
        stroke-linejoin: round;
        stroke-width: 10px;
      }

      .cls-1, .cls-2 {
        fill-rule: evenodd;
      }

      .cls-2 {
        fill: #515151;
      }
    </style>
  </defs>
  <path id="矩形_2_拷贝_11" data-name="矩形 2 拷贝 11" class="cls-1" d="M77.8,123.985l61.531-55.4a10.037,10.037,0,0,1,14.162.732l27.912,30.919a10,10,0,0,1-.734,14.142l-61.531,55.4a10.038,10.038,0,0,1-14.162-.732L77.067,138.127A10,10,0,0,1,77.8,123.985Z"/>
  <path id="矩形_3_拷贝_13" data-name="矩形 3 拷贝 13" class="cls-2" d="M89.5,165.765h86.923a6.107,6.107,0,0,1,6.107,6.107v0.016A6.108,6.108,0,0,1,176.427,178H89.5a6.108,6.108,0,0,1-6.107-6.108v-0.016A6.107,6.107,0,0,1,89.5,165.765Z"/>
  <path id="矩形_3_拷贝_15" data-name="矩形 3 拷贝 15" class="cls-2" d="M56.11,165.765H66.166a6.107,6.107,0,0,1,6.107,6.107v0.016A6.108,6.108,0,0,1,66.166,178H56.11A6.108,6.108,0,0,1,50,171.888v-0.016A6.107,6.107,0,0,1,56.11,165.765Z"/>
  <path id="矩形_3_拷贝_12" data-name="矩形 3 拷贝 12" class="cls-2" d="M106.288,99.587l32.506,34.036a5.028,5.028,0,0,1-.293,7.267l-1.405,1.258a5.434,5.434,0,0,1-7.5-.284L97.085,107.828a5.028,5.028,0,0,1,.293-7.267l1.4-1.258A5.434,5.434,0,0,1,106.288,99.587Z"/>
</svg>
