<svg xmlns="http://www.w3.org/2000/svg" width="245" height="245" viewBox="0 0 245 245">
  <defs>
    <style>
      .cls-1, .cls-2, .cls-4 {
        fill: #515151;
      }

      .cls-2, .cls-3, .cls-4 {
        fill-rule: evenodd;
      }

      .cls-3 {
        fill: none;
        stroke-width: 10px;
      }

      .cls-3, .cls-4 {
        stroke: #515151;
        stroke-linecap: round;
        stroke-linejoin: round;
      }

      .cls-4 {
        stroke-width: 5px;
      }
    </style>
  </defs>
  <circle id="椭圆_1_拷贝_3" data-name="椭圆 1 拷贝 3" class="cls-1" cx="106.688" cy="117.188" r="6.188"/>
  <path id="椭圆_1_拷贝_4" data-name="椭圆 1 拷贝 4" class="cls-2" d="M137.838,110.987a6.192,6.192,0,1,1-6.175,6.191A6.183,6.183,0,0,1,137.838,110.987Z"/>
  <path id="椭圆_3" data-name="椭圆 3" class="cls-3" d="M121.344,84.936a39.069,39.069,0,1,1-38.965,39.069A39.017,39.017,0,0,1,121.344,84.936Z"/>
  <path id="椭圆_3_拷贝" data-name="椭圆 3 拷贝" class="cls-3" d="M184.149,123.768A63.068,63.068,0,1,1,68.118,89.422m18.3-18.491a62.651,62.651,0,0,1,34.663-10.4"/>
  <path id="多边形_2_拷贝_3" data-name="多边形 2 拷贝 3" class="cls-4" d="M170.224,53.712a1.347,1.347,0,0,1,2.679,0Q174.243,65.8,186.3,67.141a1.352,1.352,0,0,1,0,2.686Q174.242,71.17,172.9,83.256a1.347,1.347,0,0,1-2.679,0q-1.339-12.086-13.393-13.429a1.352,1.352,0,0,1,0-2.686Q168.885,65.8,170.224,53.712Z"/>
</svg>
