<svg id="组_1" data-name="组 1" xmlns="http://www.w3.org/2000/svg" width="30" height="30" viewBox="0 0 245 245">
  <defs>
    <style>
      .cls-1 {
        fill: none;
        stroke: #515151;
        stroke-linecap: round;
        stroke-linejoin: round;
        stroke-width: 10px;
      }

      .cls-1, .cls-2 {
        fill-rule: evenodd;
      }

      .cls-2 {
        fill: #515151;
      }
    </style>
  </defs>
  <path id="矩形_2_拷贝_14" data-name="矩形 2 拷贝 14" class="cls-1" d="M70.032,59.86H170.969a10,10,0,0,1,10,10v95.313a10,10,0,0,1-10,10H70.032a10,10,0,0,1-10-10V69.86A10,10,0,0,1,70.032,59.86Z"/>
  <path id="矩形_3_拷贝_14" data-name="矩形 3 拷贝 14" class="cls-2" d="M57.919,101.586l44.533-44.533a4.5,4.5,0,0,1,6.364,0l1.411,1.411a4.5,4.5,0,0,1,0,6.364L65.694,109.361a4.5,4.5,0,0,1-6.364,0l-1.411-1.411A4.5,4.5,0,0,1,57.919,101.586Z"/>
  <path id="矩形_3_拷贝_17" data-name="矩形 3 拷贝 17" class="cls-2" d="M133.579,170.176l43.119-43.12a4.5,4.5,0,0,1,6.364,0l1.412,1.412a4.5,4.5,0,0,1,0,6.364l-43.12,43.119a4.5,4.5,0,0,1-6.363,0l-1.412-1.411A4.5,4.5,0,0,1,133.579,170.176Z"/>
  <path id="矩形_3_拷贝_16" data-name="矩形 3 拷贝 16" class="cls-2" d="M91.16,168.754l84.826-84.826a4.5,4.5,0,0,1,6.364,0l1.412,1.411a4.5,4.5,0,0,1,0,6.364L98.935,176.53a4.5,4.5,0,0,1-6.364,0l-1.411-1.412A4.5,4.5,0,0,1,91.16,168.754Z"/>
</svg>
