<svg id="组_5" data-name="组 5" xmlns="http://www.w3.org/2000/svg" width="245" height="245" viewBox="0 0 245 245">
  <defs>
    <style>
      .cls-1 {
        fill: none;
        stroke-width: 10px;
      }

      .cls-1, .cls-3 {
        stroke: #515151;
        stroke-linecap: round;
        stroke-linejoin: round;
      }

      .cls-1, .cls-2, .cls-3 {
        fill-rule: evenodd;
      }

      .cls-2, .cls-3 {
        fill: #515151;
      }

      .cls-3 {
        stroke-width: 5px;
      }
    </style>
  </defs>
  <path id="椭圆_2_拷贝_4" data-name="椭圆 2 拷贝 4" class="cls-1" d="M106.369,69.007a48.8,48.8,0,1,1-48.8,48.8A48.8,48.8,0,0,1,106.369,69.007Z"/>
  <path id="矩形_3_拷贝_9" data-name="矩形 3 拷贝 9" class="cls-2" d="M86.022,112.5h40.566a4.5,4.5,0,0,1,4.5,4.5v1.621a4.5,4.5,0,0,1-4.5,4.5H86.022a4.5,4.5,0,0,1-4.5-4.5V117A4.5,4.5,0,0,1,86.022,112.5Z"/>
  <path id="矩形_3_拷贝_9-2" data-name="矩形 3 拷贝 9" class="cls-2" d="M111.616,97.528v40.566a4.5,4.5,0,0,1-4.5,4.5H105.5a4.5,4.5,0,0,1-4.5-4.5V97.528a4.5,4.5,0,0,1,4.5-4.5h1.621A4.5,4.5,0,0,1,111.616,97.528Z"/>
  <path id="矩形_3_拷贝_10" data-name="矩形 3 拷贝 10" class="cls-2" d="M143.359,158.023l16.861,21.1a5.5,5.5,0,1,1-8.589,6.865L134.77,164.889A5.5,5.5,0,1,1,143.359,158.023Z"/>
  <path id="多边形_2_拷贝" data-name="多边形 2 拷贝" class="cls-3" d="M159.925,49.83a1.349,1.349,0,0,1,2.681,0q1.341,12.065,13.406,13.406a1.349,1.349,0,0,1,0,2.681q-12.066,1.341-13.406,13.406a1.349,1.349,0,0,1-2.681,0q-1.341-12.065-13.4-13.406a1.349,1.349,0,0,1,0-2.681Q158.585,61.9,159.925,49.83Z"/>
  <path id="多边形_2_拷贝_2" data-name="多边形 2 拷贝 2" class="cls-3" d="M180.324,82.688a0.831,0.831,0,0,1,1.652,0q0.826,7.434,8.261,8.26a0.831,0.831,0,0,1,0,1.652q-7.435.826-8.261,8.26a0.831,0.831,0,0,1-1.652,0q-0.825-7.434-8.26-8.26a0.831,0.831,0,0,1,0-1.652Q179.5,90.123,180.324,82.688Z"/>
</svg>
