<svg xmlns="http://www.w3.org/2000/svg" width="245" height="245" viewBox="0 0 245 245">
  <defs>
    <style>
      .cls-1 {
        fill: none;
      }

      .cls-1, .cls-2 {
        stroke: #515151;
        stroke-linecap: round;
        stroke-linejoin: round;
        stroke-width: 10px;
      }

      .cls-1, .cls-2, .cls-3, .cls-5 {
        fill-rule: evenodd;
      }

      .cls-2, .cls-5 {
        fill: #515151;
      }

      .cls-3, .cls-4 {
        fill: #f5f5f5;
      }
    </style>
  </defs>
  <path id="矩形_2_拷贝_3" data-name="矩形 2 拷贝 3" class="cls-1" d="M59.007,64.023H185.993a10,10,0,0,1,10,10v97.954a10,10,0,0,1-10,10H59.007a10,10,0,0,1-10-10V74.023A10,10,0,0,1,59.007,64.023Z"/>
  <path id="矩形_2_拷贝_2" data-name="矩形 2 拷贝 2" class="cls-2" d="M131.906,127.056H189.6a5,5,0,0,1,5,5v44.323a5,5,0,0,1-5,5H131.906a5,5,0,0,1-5-5V132.056A5,5,0,0,1,131.906,127.056Z"/>
  <path id="三角形_1_拷贝_3" data-name="三角形 1 拷贝 3" class="cls-3" d="M143.254,159.95a3,3,0,0,1,4.756,0l10.446,13.582a3,3,0,0,1-2.378,4.829H135.187a3,3,0,0,1-2.378-4.829Z"/>
  <path id="三角形_1_拷贝_3-2" data-name="三角形 1 拷贝 3" class="cls-3" d="M165.7,153.4a3,3,0,0,1,4.756,0l16.243,21.12a3,3,0,0,1-2.378,4.829H151.836a3,3,0,0,1-2.378-4.829Z"/>
  <circle id="椭圆_1_拷贝_2" data-name="椭圆 1 拷贝 2" class="cls-4" cx="150.219" cy="143.016" r="7.656"/>
  <path id="矩形_3_拷贝_3" data-name="矩形 3 拷贝 3" class="cls-5" d="M86.886,92.554l21.352,20.872a3.962,3.962,0,0,1,0,5.693,4.186,4.186,0,0,1-5.823,0L81.063,98.247a3.961,3.961,0,0,1,0-5.692A4.184,4.184,0,0,1,86.886,92.554Z"/>
  <path id="矩形_3_拷贝_4" data-name="矩形 3 拷贝 4" class="cls-5" d="M82.755,89.51v17.447a3.8,3.8,0,0,1-3.8,3.8H78.319a3.8,3.8,0,0,1-3.8-3.8V89.51a3.8,3.8,0,0,1,3.8-3.8h0.636A3.8,3.8,0,0,1,82.755,89.51Z"/>
  <path id="矩形_3_拷贝_5" data-name="矩形 3 拷贝 5" class="cls-5" d="M96.8,93.314H78.777a3.8,3.8,0,0,1-3.8-3.8V89.063a3.8,3.8,0,0,1,3.8-3.8H96.8a3.8,3.8,0,0,1,3.8,3.8v0.451A3.8,3.8,0,0,1,96.8,93.314Z"/>
</svg>
