<svg id="组_5" data-name="组 5" xmlns="http://www.w3.org/2000/svg" width="245" height="245" viewBox="0 0 245 245">
  <defs>
    <style>
      .cls-1 {
        fill: none;
        stroke: #515151;
        stroke-linecap: round;
        stroke-linejoin: round;
        stroke-width: 10px;
      }

      .cls-1, .cls-2 {
        fill-rule: evenodd;
      }

      .cls-2 {
        fill: #515151;
      }
    </style>
  </defs>
  <path id="椭圆_2_拷贝_4" data-name="椭圆 2 拷贝 4" class="cls-1" d="M106.369,69.007a48.8,48.8,0,1,1-48.8,48.8A48.8,48.8,0,0,1,106.369,69.007Z"/>
  <path id="矩形_3_拷贝_9" data-name="矩形 3 拷贝 9" class="cls-2" d="M86.022,112.5h40.566a4.5,4.5,0,0,1,4.5,4.5v1.621a4.5,4.5,0,0,1-4.5,4.5H86.022a4.5,4.5,0,0,1-4.5-4.5V117A4.5,4.5,0,0,1,86.022,112.5Z"/>
  <path id="矩形_3_拷贝_9-2" data-name="矩形 3 拷贝 9" class="cls-2" d="M111.616,97.528v40.566a4.5,4.5,0,0,1-4.5,4.5H105.5a4.5,4.5,0,0,1-4.5-4.5V97.528a4.5,4.5,0,0,1,4.5-4.5h1.621A4.5,4.5,0,0,1,111.616,97.528Z"/>
  <path id="矩形_3_拷贝_10" data-name="矩形 3 拷贝 10" class="cls-2" d="M143.359,158.023l16.861,21.1a5.5,5.5,0,1,1-8.589,6.865L134.77,164.889A5.5,5.5,0,1,1,143.359,158.023Z"/>
</svg>
